{
  "accessors": [
    {
      "bufferView": 2,
      "componentType": 5126,
      "count": 36601,
      "max": [
        110.93727111816406,
        187.5072784423828,
        109.77567291259766
      ],
      "min": [
        -82.711669921875,
        16.542423248291016,
        -105.38986206054688
      ],
      "type": "VEC3"
    },
    {
      "bufferView": 2,
      "byteOffset": 439212,
      "componentType": 5126,
      "count": 36601,
      "type": "VEC3"
    },
    {
      "bufferView": 3,
      "componentType": 5126,
      "count": 36601,
      "type": "VEC4"
    },
    {
      "bufferView": 1,
      "componentType": 5126,
      "count": 36601,
      "type": "VEC2"
    },
    {
      "bufferView": 1,
      "byteOffset": 292808,
      "componentType": 5126,
      "count": 36601,
      "type": "VEC2"
    },
    {
      "bufferView": 1,
      "byteOffset": 585616,
      "componentType": 5126,
      "count": 36601,
      "type": "VEC2"
    },
    {
      "bufferView": 1,
      "byteOffset": 878424,
      "componentType": 5126,
      "count": 36601,
      "type": "VEC2"
    },
    {
      "bufferView": 1,
      "byteOffset": 1171232,
      "componentType": 5126,
      "count": 36601,
      "type": "VEC2"
    },
    {
      "bufferView": 0,
      "componentType": 5125,
      "count": 89781,
      "type": "SCALAR"
    },
    {
      "bufferView": 2,
      "byteOffset": 878424,
      "componentType": 5126,
      "count": 21168,
      "max": [
        113.82600402832031,
        189.5018768310547,
        112.18718719482422
      ],
      "min": [
        -85.73035430908203,
        26.694622039794922,
        -108.44207763671875
      ],
      "type": "VEC3"
    },
    {
      "bufferView": 2,
      "byteOffset": 1132440,
      "componentType": 5126,
      "count": 21168,
      "type": "VEC3"
    },
    {
      "bufferView": 3,
      "byteOffset": 585616,
      "componentType": 5126,
      "count": 21168,
      "type": "VEC4"
    },
    {
      "bufferView": 1,
      "byteOffset": 1464040,
      "componentType": 5126,
      "count": 21168,
      "type": "VEC2"
    },
    {
      "bufferView": 1,
      "byteOffset": 1633384,
      "componentType": 5126,
      "count": 21168,
      "type": "VEC2"
    },
    {
      "bufferView": 1,
      "byteOffset": 1802728,
      "componentType": 5126,
      "count": 21168,
      "type": "VEC2"
    },
    {
      "bufferView": 0,
      "byteOffset": 359124,
      "componentType": 5125,
      "count": 84672,
      "type": "SCALAR"
    },
    {
      "bufferView": 2,
      "byteOffset": 1386456,
      "componentType": 5126,
      "count": 19176,
      "max": [
        105.63827514648438,
        187.2966766357422,
        106.95248413085938
      ],
      "min": [
        -90.86787414550781,
        16.491220474243164,
        -98.17615509033203
      ],
      "type": "VEC3"
    },
    {
      "bufferView": 2,
      "byteOffset": 1616568,
      "componentType": 5126,
      "count": 19176,
      "type": "VEC3"
    },
    {
      "bufferView": 3,
      "byteOffset": 924304,
      "componentType": 5126,
      "count": 19176,
      "type": "VEC4"
    },
    {
      "bufferView": 1,
      "byteOffset": 1972072,
      "componentType": 5126,
      "count": 19176,
      "type": "VEC2"
    },
    {
      "bufferView": 1,
      "byteOffset": 2125480,
      "componentType": 5126,
      "count": 19176,
      "type": "VEC2"
    },
    {
      "bufferView": 1,
      "byteOffset": 2278888,
      "componentType": 5126,
      "count": 19176,
      "type": "VEC2"
    },
    {
      "bufferView": 1,
      "byteOffset": 2432296,
      "componentType": 5126,
      "count": 19176,
      "type": "VEC2"
    },
    {
      "bufferView": 1,
      "byteOffset": 2585704,
      "componentType": 5126,
      "count": 19176,
      "type": "VEC2"
    },
    {
      "bufferView": 0,
      "byteOffset": 697812,
      "componentType": 5125,
      "count": 38352,
      "type": "SCALAR"
    },
    {
      "bufferView": 2,
      "byteOffset": 1846680,
      "componentType": 5126,
      "count": 556,
      "max": [
        51.20840072631836,
        124.04839324951172,
        41.94741439819336
      ],
      "min": [
        -34.29197692871094,
        -0.05208250507712364,
        -47.37831497192383
      ],
      "type": "VEC3"
    },
    {
      "bufferView": 2,
      "byteOffset": 1853352,
      "componentType": 5126,
      "count": 556,
      "type": "VEC3"
    },
    {
      "bufferView": 3,
      "byteOffset": 1231120,
      "componentType": 5126,
      "count": 556,
      "type": "VEC4"
    },
    {
      "bufferView": 1,
      "byteOffset": 2739112,
      "componentType": 5126,
      "count": 556,
      "type": "VEC2"
    },
    {
      "bufferView": 1,
      "byteOffset": 2743560,
      "componentType": 5126,
      "count": 556,
      "type": "VEC2"
    },
    {
      "bufferView": 1,
      "byteOffset": 2748008,
      "componentType": 5126,
      "count": 556,
      "type": "VEC2"
    },
    {
      "bufferView": 1,
      "byteOffset": 2752456,
      "componentType": 5126,
      "count": 556,
      "type": "VEC2"
    },
    {
      "bufferView": 1,
      "byteOffset": 2756904,
      "componentType": 5126,
      "count": 556,
      "type": "VEC2"
    },
    {
      "bufferView": 0,
      "byteOffset": 851220,
      "componentType": 5125,
      "count": 2142,
      "type": "SCALAR"
    }
  ],
  "asset": {
    "generator": "fab-model-conversion",
    "version": "2.0"
  },
  "bufferViews": [
    {
      "buffer": 0,
      "byteLength": 859788,
      "target": 34963
    },
    {
      "buffer": 0,
      "byteLength": 2761352,
      "byteOffset": 859788,
      "byteStride": 8,
      "target": 34962
    },
    {
      "buffer": 0,
      "byteLength": 1860024,
      "byteOffset": 3621140,
      "byteStride": 12,
      "target": 34962
    },
    {
      "buffer": 0,
      "byteLength": 1240016,
      "byteOffset": 5481164,
      "byteStride": 16,
      "target": 34962
    }
  ],
  "buffers": [
    {
      "byteLength": 6721180,
      "uri": "scene.bin"
    }
  ],
  "images": [
    {
      "uri": "textures/Branches_Mat.003_baseColor.png"
    },
    {
      "uri": "textures/Branches_Mat.003_metallicRoughness.png"
    },
    {
      "uri": "textures/Branches_Mat.003_normal.png"
    },
    {
      "uri": "textures/Kalmia_Galaxy_Mat_baseColor.png"
    },
    {
      "uri": "textures/Kalmia_Galaxy_Mat_normal.png"
    },
    {
      "uri": "textures/Kalmia_Leaves_Mat.003_baseColor.png"
    },
    {
      "uri": "textures/Kalmia_Leaves_Mat.003_metallicRoughness.png"
    },
    {
      "uri": "textures/Kalmia_Leaves_Mat.003_normal.png"
    },
    {
      "uri": "textures/Trunk_Mat.003_baseColor.png"
    },
    {
      "uri": "textures/Trunk_Mat.003_normal.png"
    }
  ],
  "materials": [
    {
      "doubleSided": true,
      "name": "Branches_Mat.003",
      "normalTexture": {
        "index": 2,
        "scale": 0.5
      },
      "pbrMetallicRoughness": {
        "baseColorTexture": {
          "index": 0
        },
        "metallicFactor": 0.0,
        "metallicRoughnessTexture": {
          "index": 1
        }
      }
    },
    {
      "alphaCutoff": 0.25,
      "alphaMode": "MASK",
      "doubleSided": true,
      "name": "Kalmia_Galaxy_Mat",
      "normalTexture": {
        "index": 4,
        "scale": 0.5
      },
      "pbrMetallicRoughness": {
        "baseColorTexture": {
          "index": 3
        },
        "metallicFactor": 0.0,
        "roughnessFactor": 0.0
      }
    },
    {
      "alphaCutoff": 0.25,
      "alphaMode": "MASK",
      "doubleSided": true,
      "name": "Kalmia_Leaves_Mat.003",
      "normalTexture": {
        "index": 7,
        "scale": 0.5
      },
      "pbrMetallicRoughness": {
        "baseColorTexture": {
          "index": 5
        },
        "metallicFactor": 0.0,
        "metallicRoughnessTexture": {
          "index": 6
        }
      }
    },
    {
      "doubleSided": true,
      "name": "Trunk_Mat.003",
      "normalTexture": {
        "index": 9,
        "scale": 0.5
      },
      "pbrMetallicRoughness": {
        "baseColorTexture": {
          "index": 8
        },
        "metallicFactor": 0.0,
        "metallicRoughnessTexture": {
          "index": 1
        }
      }
    }
  ],
  "meshes": [
    {
      "name": "Object_0",
      "primitives": [
        {
          "attributes": {
            "NORMAL": 1,
            "POSITION": 0,
            "TANGENT": 2,
            "TEXCOORD_0": 3,
            "TEXCOORD_1": 4,
            "TEXCOORD_2": 5,
            "TEXCOORD_3": 6,
            "TEXCOORD_4": 7
          },
          "indices": 8,
          "material": 0,
          "mode": 4
        }
      ]
    },
    {
      "name": "Object_1",
      "primitives": [
        {
          "attributes": {
            "NORMAL": 10,
            "POSITION": 9,
            "TANGENT": 11,
            "TEXCOORD_0": 12,
            "TEXCOORD_1": 13,
            "TEXCOORD_2": 14
          },
          "indices": 15,
          "material": 1,
          "mode": 4
        }
      ]
    },
    {
      "name": "Object_2",
      "primitives": [
        {
          "attributes": {
            "NORMAL": 17,
            "POSITION": 16,
            "TANGENT": 18,
            "TEXCOORD_0": 19,
            "TEXCOORD_1": 20,
            "TEXCOORD_2": 21,
            "TEXCOORD_3": 22,
            "TEXCOORD_4": 23
          },
          "indices": 24,
          "material": 2,
          "mode": 4
        }
      ]
    },
    {
      "name": "Object_3",
      "primitives": [
        {
          "attributes": {
            "NORMAL": 26,
            "POSITION": 25,
            "TANGENT": 27,
            "TEXCOORD_0": 28,
            "TEXCOORD_1": 29,
            "TEXCOORD_2": 30,
            "TEXCOORD_3": 31,
            "TEXCOORD_4": 32
          },
          "indices": 33,
          "material": 3,
          "mode": 4
        }
      ]
    }
  ],
  "nodes": [
    {
      "children": [
        1
      ],
      "matrix": [
        1.0,
        0.0,
        0.0,
        0.0,
        0.0,
        2.220446049250313e-16,
        -1.0,
        0.0,
        0.0,
        1.0,
        2.220446049250313e-16,
        0.0,
        0.0,
        0.0,
        0.0,
        1.0
      ],
      "name": "Sketchfab_model"
    },
    {
      "children": [
        2
      ],
      "name": "root"
    },
    {
      "children": [
        3
      ],
      "matrix": [
        1.0,
        0.0,
        0.0,
        0.0,
        0.0,
        2.220446049250313e-16,
        1.0,
        0.0,
        0.0,
        -1.0,
        2.220446049250313e-16,
        0.0,
        0.0,
        0.0,
        0.0,
        1.0
      ],
      "name": "GLTF_SceneRootNode"
    },
    {
      "children": [
        4,
        6,
        8,
        10
      ],
      "matrix": [
        0.009999999776482582,
        0.0,
        0.0,
        0.0,
        0.0,
        0.009999999776482582,
        0.0,
        0.0,
        0.0,
        0.0,
        0.009999999776482582,
        0.0,
        0.0,
        0.0,
        5.004183292388916,
        1.0
      ],
      "name": "Kalmia_Latifolia_Galaxy_4"
    },
    {
      "children": [
        5
      ],
      "matrix": [
        1.0,
        0.0,
        0.0,
        0.0,
        0.0,
        1.0,
        0.0,
        0.0,
        0.0,
        0.0,
        1.0,
        0.0,
        0.0,
        0.0,
        -479.0122375488281,
        1.0
      ],
      "name": "Branches.003_0"
    },
    {
      "mesh": 0,
      "name": "Object_5"
    },
    {
      "children": [
        7
      ],
      "matrix": [
        1.0,
        0.0,
        0.0,
        0.0,
        0.0,
        1.0,
        0.0,
        0.0,
        0.0,
        0.0,
        1.0,
        0.0,
        0.0,
        0.0,
        -479.0122375488281,
        1.0
      ],
      "name": "Kalmia_Galaxy_1"
    },
    {
      "mesh": 1,
      "name": "Object_7"
    },
    {
      "children": [
        9
      ],
      "matrix": [
        1.0,
        0.0,
        0.0,
        0.0,
        0.0,
        1.0,
        0.0,
        0.0,
        0.0,
        0.0,
        1.0,
        0.0,
        0.0,
        0.0,
        -479.0122375488281,
        1.0
      ],
      "name": "Kalmia_Leaves.003_2"
    },
    {
      "mesh": 2,
      "name": "Object_9"
    },
    {
      "children": [
        11
      ],
      "matrix": [
        1.0,
        0.0,
        0.0,
        0.0,
        0.0,
        1.0,
        0.0,
        0.0,
        0.0,
        0.0,
        1.0,
        0.0,
        0.0,
        0.0,
        -479.0122375488281,
        1.0
      ],
      "name": "Trunk.003_3"
    },
    {
      "mesh": 3,
      "name": "Object_11"
    }
  ],
  "samplers": [
    {
      "magFilter": 9729,
      "minFilter": 9987,
      "wrapS": 10497,
      "wrapT": 10497
    }
  ],
  "scene": 0,
  "scenes": [
    {
      "name": "Sketchfab_Scene",
      "nodes": [
        0
      ]
    }
  ],
  "textures": [
    {
      "sampler": 0,
      "source": 0
    },
    {
      "sampler": 0,
      "source": 1
    },
    {
      "sampler": 0,
      "source": 2
    },
    {
      "sampler": 0,
      "source": 3
    },
    {
      "sampler": 0,
      "source": 4
    },
    {
      "sampler": 0,
      "source": 5
    },
    {
      "sampler": 0,
      "source": 6
    },
    {
      "sampler": 0,
      "source": 7
    },
    {
      "sampler": 0,
      "source": 8
    },
    {
      "sampler": 0,
      "source": 9
    }
  ]
}
