{
  "accessors": [
    {
      "bufferView": 2,
      "componentType": 5126,
      "count": 2052,
      "max": [
        1.5994558334350586,
        0.22673320770263672,
        1.2051265239715576
      ],
      "min": [
        -1.5090694427490234,
        -0.37676143646240234,
        -1.2120815515518188
      ],
      "type": "VEC3"
    },
    {
      "bufferView": 2,
      "byteOffset": 24624,
      "componentType": 5126,
      "count": 2052,
      "type": "VEC3"
    },
    {
      "bufferView": 1,
      "componentType": 5126,
      "count": 2052,
      "type": "VEC2"
    },
    {
      "bufferView": 0,
      "componentType": 5125,
      "count": 3078,
      "type": "SCALAR"
    },
    {
      "bufferView": 2,
      "byteOffset": 49248,
      "componentType": 5126,
      "count": 4,
      "max": [
        3.400766134262085,
        0.0,
        1.2481396198272705
      ],
      "min": [
        -3.400766134262085,
        0.0,
        -1.24813973903656
      ],
      "type": "VEC3"
    },
    {
      "bufferView": 2,
      "byteOffset": 49296,
      "componentType": 5126,
      "count": 4,
      "type": "VEC3"
    },
    {
      "bufferView": 1,
      "byteOffset": 16416,
      "componentType": 5126,
      "count": 4,
      "type": "VEC2"
    },
    {
      "bufferView": 0,
      "byteOffset": 12312,
      "componentType": 5125,
      "count": 6,
      "type": "SCALAR"
    },
    {
      "bufferView": 2,
      "byteOffset": 49344,
      "componentType": 5126,
      "count": 1308,
      "max": [
        1.8176696300506592,
        0.13581466674804688,
        0.5332757234573364
      ],
      "min": [
        -0.7185900211334229,
        -0.01599597930908203,
        -0.4558851718902588
      ],
      "type": "VEC3"
    },
    {
      "bufferView": 2,
      "byteOffset": 65040,
      "componentType": 5126,
      "count": 1308,
      "type": "VEC3"
    },
    {
      "bufferView": 1,
      "byteOffset": 16448,
      "componentType": 5126,
      "count": 1308,
      "type": "VEC2"
    },
    {
      "bufferView": 0,
      "byteOffset": 12336,
      "componentType": 5125,
      "count": 5448,
      "type": "SCALAR"
    },
    {
      "bufferView": 2,
      "byteOffset": 80736,
      "componentType": 5126,
      "count": 580,
      "max": [
        1.4664628505706787,
        0.23616409301757813,
        0.5885778665542603
      ],
      "min": [
        -1.9789295196533203,
        -0.5044422149658203,
        -1.030303955078125
      ],
      "type": "VEC3"
    },
    {
      "bufferView": 2,
      "byteOffset": 87696,
      "componentType": 5126,
      "count": 580,
      "type": "VEC3"
    },
    {
      "bufferView": 1,
      "byteOffset": 26912,
      "componentType": 5126,
      "count": 580,
      "type": "VEC2"
    },
    {
      "bufferView": 0,
      "byteOffset": 34128,
      "componentType": 5125,
      "count": 870,
      "type": "SCALAR"
    },
    {
      "bufferView": 2,
      "byteOffset": 94656,
      "componentType": 5126,
      "count": 24,
      "max": [
        0.382871150970459,
        0.4650726318359375,
        0.24173054099082947
      ],
      "min": [
        -0.30353522300720215,
        -0.45449256896972656,
        -0.21254608035087585
      ],
      "type": "VEC3"
    },
    {
      "bufferView": 2,
      "byteOffset": 94944,
      "componentType": 5126,
      "count": 24,
      "type": "VEC3"
    },
    {
      "bufferView": 1,
      "byteOffset": 31552,
      "componentType": 5126,
      "count": 24,
      "type": "VEC2"
    },
    {
      "bufferView": 0,
      "byteOffset": 37608,
      "componentType": 5125,
      "count": 36,
      "type": "SCALAR"
    },
    {
      "bufferView": 2,
      "byteOffset": 95232,
      "componentType": 5126,
      "count": 16,
      "max": [
        0.3273351192474365,
        0.3545207977294922,
        0.4557497501373291
      ],
      "min": [
        -0.3068603277206421,
        -0.4254646301269531,
        -0.45009806752204895
      ],
      "type": "VEC3"
    },
    {
      "bufferView": 2,
      "byteOffset": 95424,
      "componentType": 5126,
      "count": 16,
      "type": "VEC3"
    },
    {
      "bufferView": 1,
      "byteOffset": 31744,
      "componentType": 5126,
      "count": 16,
      "type": "VEC2"
    },
    {
      "bufferView": 0,
      "byteOffset": 37752,
      "componentType": 5125,
      "count": 24,
      "type": "SCALAR"
    },
    {
      "bufferView": 2,
      "byteOffset": 95616,
      "componentType": 5126,
      "count": 20,
      "max": [
        0.6275861263275146,
        0.5374603271484375,
        0.2858973741531372
      ],
      "min": [
        -0.5214822292327881,
        -0.6563358306884766,
        -0.39192521572113037
      ],
      "type": "VEC3"
    },
    {
      "bufferView": 2,
      "byteOffset": 95856,
      "componentType": 5126,
      "count": 20,
      "type": "VEC3"
    },
    {
      "bufferView": 1,
      "byteOffset": 31872,
      "componentType": 5126,
      "count": 20,
      "type": "VEC2"
    },
    {
      "bufferView": 0,
      "byteOffset": 37848,
      "componentType": 5125,
      "count": 30,
      "type": "SCALAR"
    }
  ],
  "asset": {
    "generator": "fab-model-conversion",
    "version": "2.0"
  },
  "bufferViews": [
    {
      "buffer": 0,
      "byteLength": 37968,
      "target": 34963
    },
    {
      "buffer": 0,
      "byteLength": 32032,
      "byteOffset": 37968,
      "byteStride": 8,
      "target": 34962
    },
    {
      "buffer": 0,
      "byteLength": 96096,
      "byteOffset": 70000,
      "byteStride": 12,
      "target": 34962
    }
  ],
  "buffers": [
    {
      "byteLength": 166096,
      "uri": "scene.bin"
    }
  ],
  "extensionsUsed": [
    "KHR_materials_specular"
  ],
  "images": [
    {
      "uri": "textures/IvyLeaf_baseColor.png"
    },
    {
      "uri": "textures/IvyLeaf_metallicRoughness.png"
    },
    {
      "uri": "textures/hosta1_baseColor.png"
    },
    {
      "uri": "textures/Fern1_baseColor.png"
    },
    {
      "uri": "textures/FernLong_baseColor.png"
    }
  ],
  "materials": [
    {
      "alphaMode": "BLEND",
      "doubleSided": true,
      "extensions": {
        "KHR_materials_specular": {
          "specularColorFactor": [
            1.0,
            1.0,
            1.0
          ],
          "specularFactor": 0.10209554924357864
        }
      },
      "name": "IvyLeaf",
      "pbrMetallicRoughness": {
        "baseColorTexture": {
          "index": 0
        },
        "metallicFactor": 0.0,
        "metallicRoughnessTexture": {
          "index": 1
        },
        "roughnessFactor": 0.8579073764796235
      }
    },
    {
      "doubleSided": true,
      "extensions": {
        "KHR_materials_specular": {
          "specularFactor": 0.5531445429167022
        }
      },
      "name": "wall",
      "pbrMetallicRoughness": {
        "baseColorFactor": [
          0.7076012526892669,
          0.7076012526892669,
          0.7076012526892669,
          1.0
        ],
        "metallicFactor": 0.0,
        "roughnessFactor": 0.9544593451430483
      }
    },
    {
      "doubleSided": true,
      "extensions": {
        "KHR_materials_specular": {
          "specularFactor": 0.24838170935378087
        }
      },
      "name": "IvyBranch",
      "pbrMetallicRoughness": {
        "baseColorFactor": [
          0.0105389,
          0.039937,
          0.0107335,
          1.0
        ],
        "metallicFactor": 0.0,
        "roughnessFactor": 0.9929388391681838
      }
    },
    {
      "alphaMode": "BLEND",
      "doubleSided": true,
      "extensions": {
        "KHR_materials_specular": {
          "specularColorFactor": [
            1.0,
            1.0,
            1.0
          ],
          "specularFactor": 0.03504772585973595
        }
      },
      "name": "hosta1",
      "pbrMetallicRoughness": {
        "baseColorTexture": {
          "index": 2
        },
        "metallicFactor": 0.821335836452073
      }
    },
    {
      "alphaMode": "BLEND",
      "doubleSided": true,
      "name": "Fern1",
      "pbrMetallicRoughness": {
        "baseColorTexture": {
          "index": 3
        },
        "metallicFactor": 0.0
      }
    },
    {
      "alphaMode": "BLEND",
      "doubleSided": true,
      "name": "FernLong",
      "pbrMetallicRoughness": {
        "baseColorTexture": {
          "index": 4
        },
        "metallicFactor": 0.0
      }
    }
  ],
  "meshes": [
    {
      "name": "Ivy_Square_IvyLeaf_0",
      "primitives": [
        {
          "attributes": {
            "NORMAL": 1,
            "POSITION": 0,
            "TEXCOORD_0": 2
          },
          "indices": 3,
          "material": 0,
          "mode": 4
        }
      ]
    },
    {
      "name": "IvyWall_wall_0",
      "primitives": [
        {
          "attributes": {
            "NORMAL": 5,
            "POSITION": 4,
            "TEXCOORD_0": 6
          },
          "indices": 7,
          "material": 1,
          "mode": 4
        }
      ]
    },
    {
      "name": "Ivy_Strand_IvyBranch_0",
      "primitives": [
        {
          "attributes": {
            "NORMAL": 9,
            "POSITION": 8,
            "TEXCOORD_0": 10
          },
          "indices": 11,
          "material": 2,
          "mode": 4
        }
      ]
    },
    {
      "name": "Ivy_Strand_IvyLeaf_0",
      "primitives": [
        {
          "attributes": {
            "NORMAL": 13,
            "POSITION": 12,
            "TEXCOORD_0": 14
          },
          "indices": 15,
          "material": 0,
          "mode": 4
        }
      ]
    },
    {
      "name": "hosta1_hosta1_0",
      "primitives": [
        {
          "attributes": {
            "NORMAL": 17,
            "POSITION": 16,
            "TEXCOORD_0": 18
          },
          "indices": 19,
          "material": 3,
          "mode": 4
        }
      ]
    },
    {
      "name": "Fern1_Fern1_0",
      "primitives": [
        {
          "attributes": {
            "NORMAL": 21,
            "POSITION": 20,
            "TEXCOORD_0": 22
          },
          "indices": 23,
          "material": 4,
          "mode": 4
        }
      ]
    },
    {
      "name": "Fern2_FernLong_0",
      "primitives": [
        {
          "attributes": {
            "NORMAL": 25,
            "POSITION": 24,
            "TEXCOORD_0": 26
          },
          "indices": 27,
          "material": 5,
          "mode": 4
        }
      ]
    }
  ],
  "nodes": [
    {
      "children": [
        1
      ],
      "matrix": [
        1.0,
        0.0,
        0.0,
        0.0,
        0.0,
        2.220446049250313e-16,
        -1.0,
        0.0,
        0.0,
        1.0,
        2.220446049250313e-16,
        0.0,
        0.0,
        0.0,
        0.0,
        1.0
      ],
      "name": "Sketchfab_model"
    },
    {
      "children": [
        2
      ],
      "matrix": [
        1.0,
        0.0,
        0.0,
        0.0,
        0.0,
        0.0,
        1.0,
        0.0,
        0.0,
        -1.0,
        0.0,
        0.0,
        0.0,
        0.0,
        0.0,
        1.0
      ],
      "name": "bdc84b95712e4145b0611d8c8aa39b69.fbx"
    },
    {
      "children": [
        3,
        5,
        7,
        10,
        12,
        14
      ],
      "name": "RootNode"
    },
    {
      "children": [
        4
      ],
      "matrix": [
        1.0,
        0.0,
        0.0,
        0.0,
        0.0,
        -1.6292067939183141e-07,
        -0.9999999999999868,
        0.0,
        0.0,
        0.9999999999999868,
        -1.6292067939183141e-07,
        0.0,
        5.431880474090576,
        1.2379353046417236,
        15.509058952331543,
        1.0
      ],
      "name": "Ivy_Square"
    },
    {
      "mesh": 0,
      "name": "Ivy_Square_IvyLeaf_0"
    },
    {
      "children": [
        6
      ],
      "matrix": [
        1.0,
        0.0,
        0.0,
        0.0,
        0.0,
        -1.6292067939183141e-07,
        -0.9999999999999868,
        0.0,
        0.0,
        0.9999999999999868,
        -1.6292067939183141e-07,
        0.0,
        3.6703155040740967,
        1.1273887157440186,
        15.323709487915039,
        1.0
      ],
      "name": "IvyWall"
    },
    {
      "mesh": 1,
      "name": "IvyWall_wall_0"
    },
    {
      "children": [
        8,
        9
      ],
      "matrix": [
        1.0,
        0.0,
        0.0,
        0.0,
        0.0,
        -1.6292067939183141e-07,
        -0.9999999999999868,
        0.0,
        0.0,
        0.9999999999999868,
        -1.6292067939183141e-07,
        0.0,
        2.4552528858184814,
        1.8379243612289429,
        15.410462379455566,
        1.0
      ],
      "name": "Ivy_Strand"
    },
    {
      "mesh": 2,
      "name": "Ivy_Strand_IvyBranch_0"
    },
    {
      "mesh": 3,
      "name": "Ivy_Strand_IvyLeaf_0"
    },
    {
      "children": [
        11
      ],
      "matrix": [
        1.0,
        0.0,
        0.0,
        0.0,
        0.0,
        -1.6292067939183141e-07,
        -0.9999999999999868,
        0.0,
        0.0,
        0.9999999999999868,
        -1.6292067939183141e-07,
        0.0,
        2.881545305252075,
        0.1116165742278099,
        16.99006462097168,
        1.0
      ],
      "name": "hosta1"
    },
    {
      "mesh": 4,
      "name": "hosta1_hosta1_0"
    },
    {
      "children": [
        13
      ],
      "matrix": [
        1.0,
        0.0,
        0.0,
        0.0,
        0.0,
        -1.6292067939183141e-07,
        -0.9999999999999868,
        0.0,
        0.0,
        0.9999999999999868,
        -1.6292067939183141e-07,
        0.0,
        2.18533992767334,
        0.26970821619033813,
        17.470256805419922,
        1.0
      ],
      "name": "Fern1"
    },
    {
      "mesh": 5,
      "name": "Fern1_Fern1_0"
    },
    {
      "children": [
        15
      ],
      "matrix": [
        1.0,
        0.0,
        0.0,
        0.0,
        0.0,
        -1.6292067939183141e-07,
        -0.9999999999999868,
        0.0,
        0.0,
        0.9999999999999868,
        -1.6292067939183141e-07,
        0.0,
        3.769986391067505,
        0.20877356827259064,
        16.65254020690918,
        1.0
      ],
      "name": "Fern2"
    },
    {
      "mesh": 6,
      "name": "Fern2_FernLong_0"
    }
  ],
  "samplers": [
    {
      "magFilter": 9729,
      "minFilter": 9987,
      "wrapS": 10497,
      "wrapT": 10497
    },
    {
      "magFilter": 9729,
      "minFilter": 9987,
      "wrapS": 33071,
      "wrapT": 33071
    }
  ],
  "scene": 0,
  "scenes": [
    {
      "name": "Sketchfab_Scene",
      "nodes": [
        0
      ]
    }
  ],
  "textures": [
    {
      "sampler": 0,
      "source": 0
    },
    {
      "sampler": 0,
      "source": 1
    },
    {
      "sampler": 1,
      "source": 2
    },
    {
      "sampler": 1,
      "source": 3
    },
    {
      "sampler": 1,
      "source": 4
    }
  ]
}
