{
  "accessors": [
    {
      "bufferView": 2,
      "componentType": 5126,
      "count": 14992,
      "max": [
        0.9969729781150818,
        0.7977330088615417,
        1.0
      ],
      "min": [
        -0.9969729781150818,
        -0.7977330088615417,
        -1.0
      ],
      "type": "VEC3"
    },
    {
      "bufferView": 2,
      "byteOffset": 179904,
      "componentType": 5126,
      "count": 14992,
      "max": [
        0.9997825026512146,
        0.9692252278327942,
        0.9961404800415039
      ],
      "min": [
        -0.9998357892036438,
        -0.9999998807907104,
        -0.9970438480377197
      ],
      "type": "VEC3"
    },
    {
      "bufferView": 3,
      "componentType": 5126,
      "count": 14992,
      "max": [
        0.9999926686286926,
        0.999932587146759,
        0.9999873638153076,
        1.0
      ],
      "min": [
        -0.9999713897705078,
        -0.999869704246521,
        -0.9999681711196899,
        -1.0
      ],
      "type": "VEC4"
    },
    {
      "bufferView": 1,
      "componentType": 5126,
      "count": 14992,
      "max": [
        0.9999759793281555,
        0.9999970197677612
      ],
      "min": [
        9.999999747378752e-06,
        6.973743438720703e-06
      ],
      "type": "VEC2"
    },
    {
      "bufferView": 1,
      "byteOffset": 119936,
      "componentType": 5126,
      "count": 14992,
      "max": [
        0.9999759793281555,
        0.9999970197677612
      ],
      "min": [
        9.999999747378752e-06,
        6.973743438720703e-06
      ],
      "type": "VEC2"
    },
    {
      "bufferView": 1,
      "byteOffset": 239872,
      "componentType": 5126,
      "count": 14992,
      "max": [
        0.9999759793281555,
        0.9999970197677612
      ],
      "min": [
        9.999999747378752e-06,
        6.973743438720703e-06
      ],
      "type": "VEC2"
    },
    {
      "bufferView": 1,
      "byteOffset": 359808,
      "componentType": 5126,
      "count": 14992,
      "max": [
        0.9999759793281555,
        0.9999970197677612
      ],
      "min": [
        9.999999747378752e-06,
        6.973743438720703e-06
      ],
      "type": "VEC2"
    },
    {
      "bufferView": 0,
      "componentType": 5125,
      "count": 14994,
      "type": "SCALAR"
    }
  ],
  "asset": {
    "extras": {
      "author": "sevengames (https://sketchfab.com/sevengames)",
      "license": "SKETCHFAB Standard (https://sketchfab.com/licenses)",
      "source": "https://sketchfab.com/3d-models/white-mesh-10-a93d85b555fa4c8ea2027674b784a5e8",
      "title": "white_mesh (10)"
    },
    "generator": "Sketchfab-16.85.0",
    "version": "2.0"
  },
  "bufferViews": [
    {
      "buffer": 0,
      "byteLength": 59976,
      "name": "floatBufferViews",
      "target": 34963
    },
    {
      "buffer": 0,
      "byteLength": 479744,
      "byteOffset": 59976,
      "byteStride": 8,
      "name": "floatBufferViews",
      "target": 34962
    },
    {
      "buffer": 0,
      "byteLength": 359808,
      "byteOffset": 539720,
      "byteStride": 12,
      "name": "floatBufferViews",
      "target": 34962
    },
    {
      "buffer": 0,
      "byteLength": 239872,
      "byteOffset": 899528,
      "byteStride": 16,
      "name": "floatBufferViews",
      "target": 34962
    }
  ],
  "buffers": [
    {
      "byteLength": 1139400,
      "uri": "scene.bin"
    }
  ],
  "images": [
    {
      "uri": "textures/material_0_baseColor.jpeg"
    },
    {
      "uri": "textures/material_0_metallicRoughness.png"
    },
    {
      "uri": "textures/material_0_normal.jpeg"
    }
  ],
  "materials": [
    {
      "doubleSided": true,
      "name": "material_0",
      "normalTexture": {
        "index": 2
      },
      "pbrMetallicRoughness": {
        "baseColorTexture": {
          "index": 0
        },
        "metallicRoughnessTexture": {
          "index": 1
        }
      }
    }
  ],
  "meshes": [
    {
      "name": "Object_0",
      "primitives": [
        {
          "attributes": {
            "NORMAL": 1,
            "POSITION": 0,
            "TANGENT": 2,
            "TEXCOORD_0": 3,
            "TEXCOORD_1": 4,
            "TEXCOORD_2": 5,
            "TEXCOORD_3": 6
          },
          "indices": 7,
          "material": 0,
          "mode": 4
        }
      ]
    }
  ],
  "nodes": [
    {
      "children": [
        1
      ],
      "matrix": [
        1.0,
        0.0,
        0.0,
        0.0,
        0.0,
        2.220446049250313e-16,
        -1.0,
        0.0,
        0.0,
        1.0,
        2.220446049250313e-16,
        0.0,
        0.0,
        0.0,
        0.0,
        1.0
      ],
      "name": "Sketchfab_model"
    },
    {
      "children": [
        2
      ],
      "name": "root"
    },
    {
      "children": [
        3
      ],
      "matrix": [
        1.0,
        0.0,
        0.0,
        0.0,
        0.0,
        2.220446049250313e-16,
        1.0,
        0.0,
        0.0,
        -1.0,
        2.220446049250313e-16,
        0.0,
        0.0,
        0.0,
        0.0,
        1.0
      ],
      "name": "GLTF_SceneRootNode"
    },
    {
      "children": [
        4
      ],
      "name": "_0"
    },
    {
      "mesh": 0,
      "name": "Object_4"
    }
  ],
  "samplers": [
    {
      "magFilter": 9729,
      "minFilter": 9987,
      "wrapS": 10497,
      "wrapT": 10497
    }
  ],
  "scene": 0,
  "scenes": [
    {
      "name": "Sketchfab_Scene",
      "nodes": [
        0
      ]
    }
  ],
  "textures": [
    {
      "sampler": 0,
      "source": 0
    },
    {
      "sampler": 0,
      "source": 1
    },
    {
      "sampler": 0,
      "source": 2
    }
  ]
}
